<?xml version="1.0" encoding="utf-8"?>
<!-- Generator: Adobe Illustrator 19.0.0, SVG Export Plug-In . SVG Version: 6.00 Build 0)  -->
<svg version="1.1" id="Layer_1" xmlns="http://www.w3.org/2000/svg" xmlns:xlink="http://www.w3.org/1999/xlink" x="0px" y="0px"
	 viewBox="0 0 96 96" style="enable-background:new 0 0 96 96;" xml:space="preserve">
<g id="XMLID_1_">
	<path id="XMLID_3_" d="M76.2,52.2v-3.5H65.5c-0.3-4-1.8-7.6-3.9-10.6h8.9l3.9-15.4l-3.4-0.9l-3.2,12.8h-9.6L58,34.5
		c0.4-1.1,0.6-2.2,0.6-3.4c0-5.8-4.7-10.5-10.6-10.5c-5.8,0-10.6,4.7-10.6,10.5c0,1.2,0.2,2.3,0.6,3.4l-0.1,0.1h-9.6l-3.2-12.8
		l-3.4,0.9l3.9,15.4h8.9c-2.2,2.9-3.6,6.6-3.9,10.6H19.8v3.5h10.6c0.2,2.5,0.9,4.9,1.9,7h-6.8l-3.9,15.4l3.4,0.9l3.2-12.8h6.2
		c3.2,4.3,8.1,7,13.6,7c5.5,0,10.3-2.7,13.6-7h6.2l3.2,12.8l3.4-0.9l-3.9-15.4h-6.8c1-2.1,1.6-4.5,1.9-7H76.2L76.2,52.2z"/>
</g>
</svg>
